<?xml version="1.0" encoding="iso-8859-1" standalone="no"?> 
<?xml-stylesheet href="latex-vhSeOR.css" type="text/css"?> 
<svg xmlns="http://www.w3.org/2000/svg" xmlns:xlink="http://www.w3.org/1999/xlink" width="213.7955pt" height="217.8637pt" viewBox="-106.89775 -110.96594 213.7955 217.8637 "> 
<g transform="translate(0, 106.89775 ) scale(1,-1) translate(0,110.96594 )"> 
                                <g stroke="#000" fill="#000">
 <g stroke-width="0.4">
 <path d=" M -106.69775 0.0 L 106.23776 0.0  " fill="none"/>
 <g transform="translate(106.23776,0.0)">
 <g stroke-width="0.31999">
 <g stroke-dasharray="none" stroke-dashoffset="0.0">
 <g stroke-linecap="round">
 <g stroke-linejoin="round">
 <path d=" M -1.19998 1.59998 C -1.09998 0.99998 0.0 0.09999 0.29999 0.0 C 0.0 -0.09999 -1.09998 -0.99998 -1.19998 -1.59998  " fill="none"/>
 </g>
 </g>
 </g>
 </g>
  </g>
 <path d=" M 0.0 -106.69775 L 0.0 106.23776  " fill="none"/>
 <g transform="matrix(0.0,1.0,-1.0,0.0,0.0,106.23776)">
 <g stroke-width="0.31999">
 <g stroke-dasharray="none" stroke-dashoffset="0.0">
 <g stroke-linecap="round">
 <g stroke-linejoin="round">
 <path d=" M -1.19998 1.59998 C -1.09998 0.99998 0.0 0.09999 0.29999 0.0 C 0.0 -0.09999 -1.09998 -0.99998 -1.19998 -1.59998  " fill="none"/>
 </g>
 </g>
 </g>
 </g>
  </g>
 <clipPath id="pgfcp1"><path d=" M -106.69775 -110.96594 M -106.69775 -110.96594 L -106.69775 106.69775 L 106.69775 106.69775 L 106.69775 -110.96594 Z M 106.69775 106.69775  "/> </clipPath>
 <g clip-path="url(#pgfcp1)">
 <g fill="#000">
 <g fill-opacity="0.1">
 <path d=" M -85.35823 -85.35823 M -85.35823 -85.35823 L -85.35823 85.35823 L 85.35823 85.35823 L 85.35823 -85.35823 Z M 85.35823 85.35823  " stroke="none"/>
 </g>
 </g>
 <g fill="#f00">
 <g fill-opacity="0.13">
 <path d=" M -76.82185 -34.14276 M -76.82185 -34.14276 L -76.82185 76.82185 L 55.48228 76.82185 L 55.48228 -34.14276 Z M 55.48228 76.82185  " />
 <g stroke-opacity="1">
 <g fill-opacity="1">
 <g stroke-opacity="1">
 <g fill-opacity="1">
 </g>
 </g>
 <g transform="translate(40.33136,66.34444)">
 <g fill="#000">
 <text style="stroke:none" transform="scale(1,-1) translate(5.80898,0)" text-anchor="middle"  font-size="10"> 
<g fill="#000">
 <g stroke="none"> <tspan font-family="cmti" font-size="10">fly</tspan></g> </g>
 </text> 
</g>
 </g>
 </g>
 </g>
 </g>
 </g>
 <g fill="#00f">
 <g fill-opacity="0.13">
 <path d=" M -17.07138 -25.60771 M -17.07138 -25.60771 L -17.07138 42.6791 L 85.35823 42.6791 L 85.35823 -25.60771 Z M 85.35823 42.6791  " />
 <g stroke-opacity="1">
 <g fill-opacity="1">
 <g stroke-opacity="1">
 <g fill-opacity="1">
 </g>
 </g>
 <g transform="translate(64.30872,32.20169)">
 <g fill="#000">
 <text style="stroke:none" transform="scale(1,-1) translate(8.75827,0)" text-anchor="middle"  font-size="10"> 
<g fill="#000">
 <g stroke="none"> <tspan font-family="cmti" font-size="10">bird</tspan></g> </g>
 </text> 
</g>
 </g>
 </g>
 </g>
 </g>
 </g>
 <path d=" M 85.35823 6.0 L 85.35823 -6.0  " fill="none"/>
 <g transform="translate(82.85823,-15.9774)">
 <g fill="#000">
 <text style="stroke:none" transform="scale(1,-1) translate(2.5,0)" text-anchor="middle"  font-size="10"> 
<g fill="#000">
 <g stroke="none"> 1 </g> </g>
 </text> 
</g>
 </g>
 <path d=" M 6.0 85.35823 L -6.0 85.35823  " fill="none"/>
 <g transform="translate(-14.53297,82.13602)">
 <g fill="#000">
 <text style="stroke:none" transform="scale(1,-1) translate(2.5,0)" text-anchor="middle"  font-size="10"> 
<g fill="#000">
 <g stroke="none"> 1 </g> </g>
 </text> 
</g>
 </g>
 </g>
 </g>
 </g>
 
                                                                </g> 
</svg> 
